<svg width="26" height="26" viewBox="0 0 26 26" fill="none" xmlns="http://www.w3.org/2000/svg">
<path d="M26 22.3889C26 24.3835 24.3835 26 22.3889 26H3.61111C1.61654 26 0 24.3835 0 22.3889V3.61111C0 1.61654 1.61654 0 3.61111 0H22.3889C24.3835 0 26 1.61654 26 3.61111V22.3889Z" fill="black" fill-opacity="0.8"/>
<path d="M20.4875 13.7221H18.0556V23.111H14.4445V13.7221H12.2778V10.8332H14.4445V9.09253C14.4473 6.55911 15.4996 5.05542 18.4844 5.05542H20.9445V7.94431H19.2941C18.1318 7.94431 18.0556 8.37877 18.0556 9.18845V10.8332H20.9445L20.4875 13.7221Z" fill="white"/>
</svg>
