<svg width="26" height="26" viewBox="0 0 26 26" fill="none" xmlns="http://www.w3.org/2000/svg">
<path d="M26 3.07701C25.0415 3.60065 24.0142 3.95224 22.9341 4.11182C24.0365 3.29893 24.8835 2.01228 25.2806 0.481251C24.2513 1.2318 23.1064 1.77788 21.8926 2.07212C20.92 0.795435 19.5339 0 18 0C15.0537 0 12.6646 2.93737 12.6646 6.56296C12.6646 7.07663 12.7133 7.57783 12.8045 8.05908C8.37082 7.78479 4.44174 5.17157 1.80952 1.19939C1.34954 2.17186 1.08815 3.29893 1.08815 4.50081C1.08815 6.7774 2.02837 8.78719 3.46099 9.96662C2.58561 9.93172 1.76292 9.63499 1.04357 9.14376C1.04357 9.17119 1.04357 9.19862 1.04357 9.22605C1.04357 12.4078 2.88349 15.0584 5.32118 15.6643C4.87538 15.8139 4.40324 15.8937 3.91692 15.8937C3.57244 15.8937 3.2381 15.8538 2.91185 15.774C3.59271 18.3798 5.56231 20.2823 7.89463 20.3347C6.07092 22.0951 3.77102 23.1424 1.27052 23.1424C0.838906 23.1424 0.415401 23.1125 0 23.0502C2.35866 24.9153 5.16312 26 8.17629 26C17.9878 26 23.3536 15.9985 23.3536 7.32598C23.3536 7.04172 23.3475 6.75496 23.3394 6.47569C24.381 5.55059 25.2847 4.39359 26 3.07701Z" fill="black"/>
</svg>
